<svg xmlns="http://www.w3.org/2000/svg" viewBox="0 0 1280 1600" width="1280" height="1600" role="img" aria-labelledby="title desc">
  <title id="title">Woman with Umbrella Beside a Lotus Pond in Light Rain</title>
  <desc id="desc">A gentle illustrated scene of an adult woman holding an umbrella beside a lotus pond during soft rain.</desc>
  <defs>
    <linearGradient id="sky" x1="0" y1="0" x2="0" y2="1">
      <stop offset="0" stop-color="#afc7cf"/>
      <stop offset="0.45" stop-color="#cad9d1"/>
      <stop offset="1" stop-color="#e8ddca"/>
    </linearGradient>
    <linearGradient id="water" x1="0" y1="0" x2="0" y2="1">
      <stop offset="0" stop-color="#8db7b1"/>
      <stop offset="0.55" stop-color="#5f8e8d"/>
      <stop offset="1" stop-color="#43686d"/>
    </linearGradient>
    <radialGradient id="moonGlow" cx="50%" cy="28%" r="50%">
      <stop offset="0" stop-color="#fff8dd" stop-opacity="0.7"/>
      <stop offset="0.45" stop-color="#fff8dd" stop-opacity="0.18"/>
      <stop offset="1" stop-color="#fff8dd" stop-opacity="0"/>
    </radialGradient>
    <radialGradient id="umbrellaTop" cx="52%" cy="38%" r="70%">
      <stop offset="0" stop-color="#f3b0a6"/>
      <stop offset="0.58" stop-color="#c75d65"/>
      <stop offset="1" stop-color="#7f3848"/>
    </radialGradient>
    <linearGradient id="dress" x1="0" y1="0" x2="0" y2="1">
      <stop offset="0" stop-color="#f9e2d7"/>
      <stop offset="0.5" stop-color="#d9a3a2"/>
      <stop offset="1" stop-color="#996b7d"/>
    </linearGradient>
    <linearGradient id="shore" x1="0" y1="0" x2="1" y2="0">
      <stop offset="0" stop-color="#c6b184"/>
      <stop offset="0.5" stop-color="#d9c39b"/>
      <stop offset="1" stop-color="#a88e6f"/>
    </linearGradient>
    <filter id="soft" x="-20%" y="-20%" width="140%" height="140%">
      <feGaussianBlur stdDeviation="12"/>
    </filter>
    <filter id="mist" x="-20%" y="-20%" width="140%" height="140%">
      <feGaussianBlur stdDeviation="22"/>
    </filter>
    <g id="raindrop">
      <path d="M0 0 L-4 28" stroke="#eef7f4" stroke-width="2.2" stroke-linecap="round" opacity="0.62"/>
    </g>
    <g id="lotusLeaf">
      <ellipse cx="0" cy="0" rx="82" ry="34" fill="#376f63"/>
      <path d="M-74 0 C-30 -16 24 -18 78 0 C26 12 -34 14 -74 0Z" fill="#5f9b78" opacity="0.55"/>
      <path d="M0 0 L45 -11 M0 0 L-50 -8 M0 0 L25 17" stroke="#a8cf9a" stroke-width="3" opacity="0.5" stroke-linecap="round"/>
    </g>
    <g id="lotusFlower">
      <path d="M0 -52 C26 -22 28 12 0 38 C-28 12 -26 -22 0 -52Z" fill="#f7a7bb"/>
      <path d="M-18 -31 C-52 -12 -48 27 -11 37 C-8 8 -7 -15 -18 -31Z" fill="#ef7fa4"/>
      <path d="M18 -31 C52 -12 48 27 11 37 C8 8 7 -15 18 -31Z" fill="#f3bfd0"/>
      <circle cx="0" cy="20" r="9" fill="#f4c34e"/>
    </g>
  </defs>

  <rect width="1280" height="1600" fill="url(#sky)"/>
  <rect width="1280" height="1600" fill="url(#moonGlow)" opacity="0.65"/>

  <g opacity="0.45" filter="url(#mist)">
    <path d="M-90 420 C220 300 360 380 590 302 C820 222 1040 300 1370 190 L1370 646 L-90 646Z" fill="#eef2df"/>
    <path d="M-100 526 C220 450 404 528 620 440 C876 336 1032 480 1380 358 L1380 706 L-100 706Z" fill="#dbe6d1"/>
  </g>

  <g opacity="0.38">
    <path d="M0 584 C186 466 330 518 492 438 C666 352 862 452 1012 354 C1118 284 1198 268 1280 276 L1280 740 L0 740Z" fill="#6f8b81"/>
    <path d="M0 655 C146 604 336 616 526 542 C746 456 982 548 1280 464 L1280 826 L0 826Z" fill="#4e756f" opacity="0.55"/>
  </g>

  <rect y="704" width="1280" height="896" fill="url(#water)"/>

  <g opacity="0.36">
    <path d="M55 826 C254 800 450 808 648 826 C844 844 1038 850 1228 826" fill="none" stroke="#d5ece6" stroke-width="5" stroke-linecap="round"/>
    <path d="M100 954 C338 920 574 936 813 954 C968 965 1088 966 1220 948" fill="none" stroke="#d2e9e3" stroke-width="4" stroke-linecap="round"/>
    <path d="M24 1114 C228 1082 492 1098 702 1118 C906 1138 1056 1134 1262 1102" fill="none" stroke="#d2e9e3" stroke-width="4" stroke-linecap="round"/>
    <path d="M66 1290 C300 1264 536 1278 756 1296 C956 1312 1116 1308 1238 1288" fill="none" stroke="#d2e9e3" stroke-width="3" stroke-linecap="round"/>
  </g>

  <path d="M0 955 C134 922 254 910 388 914 C552 920 657 956 805 926 C967 892 1118 882 1280 914 L1280 1106 C1068 1086 864 1115 665 1078 C486 1044 296 1044 0 1112Z" fill="url(#shore)"/>
  <path d="M0 1014 C206 980 440 996 624 1012 C860 1032 1064 990 1280 1004" fill="none" stroke="#f0dcb3" stroke-width="5" opacity="0.55"/>

  <g opacity="0.75">
    <use href="#lotusLeaf" x="180" y="800" transform="rotate(-8 180 800) scale(0.9)"/>
    <use href="#lotusLeaf" x="355" y="858" transform="rotate(10 355 858) scale(0.72)"/>
    <use href="#lotusLeaf" x="1042" y="816" transform="rotate(5 1042 816) scale(0.95)"/>
    <use href="#lotusLeaf" x="1124" y="1060" transform="rotate(-12 1124 1060) scale(0.7)"/>
    <use href="#lotusLeaf" x="250" y="1210" transform="rotate(6 250 1210) scale(0.68)"/>
    <use href="#lotusLeaf" x="980" y="1288" transform="rotate(11 980 1288) scale(0.78)"/>
    <use href="#lotusLeaf" x="520" y="1376" transform="rotate(-4 520 1376) scale(0.9)"/>
    <use href="#lotusLeaf" x="782" y="884" transform="rotate(-5 782 884) scale(0.58)"/>
  </g>

  <g>
    <use href="#lotusFlower" x="220" y="746" transform="scale(0.88)"/>
    <use href="#lotusFlower" x="1102" y="760" transform="scale(0.78)"/>
    <use href="#lotusFlower" x="334" y="1144" transform="scale(0.62)"/>
    <use href="#lotusFlower" x="896" y="1222" transform="scale(0.7)"/>
    <use href="#lotusFlower" x="538" y="1310" transform="scale(0.76)"/>
  </g>

  <g opacity="0.45">
    <ellipse cx="660" cy="1286" rx="210" ry="32" fill="#2b5458" filter="url(#soft)"/>
    <path d="M642 1090 C604 1160 582 1252 606 1358 C628 1448 734 1436 763 1352 C790 1272 742 1180 710 1090Z" fill="#2f555e" opacity="0.38"/>
    <path d="M518 1014 C594 1052 715 1050 796 1014 C750 1082 572 1086 518 1014Z" fill="#2f555e" opacity="0.3"/>
  </g>

  <g transform="translate(0 0)">
    <path d="M637 550 C585 636 575 780 638 902" fill="none" stroke="#5a403f" stroke-width="13" stroke-linecap="round"/>
    <path d="M636 896 C635 928 648 940 678 938 C710 936 724 912 718 882" fill="none" stroke="#5a403f" stroke-width="13" stroke-linecap="round"/>

    <path d="M353 550 C448 310 820 284 938 548 C842 506 740 512 646 548 C548 512 446 504 353 550Z" fill="url(#umbrellaTop)"/>
    <path d="M353 550 C448 310 820 284 938 548" fill="none" stroke="#7a3245" stroke-width="8" stroke-linecap="round"/>
    <path d="M420 526 C506 462 584 443 646 548 C704 438 794 464 872 526" fill="none" stroke="#ffd2c1" stroke-width="4" opacity="0.55"/>
    <path d="M646 548 C620 458 610 382 638 318" fill="none" stroke="#6d2e44" stroke-width="5" opacity="0.45"/>
    <path d="M646 548 C666 454 718 386 805 342" fill="none" stroke="#6d2e44" stroke-width="5" opacity="0.42"/>
    <path d="M646 548 C560 450 496 404 430 404" fill="none" stroke="#6d2e44" stroke-width="5" opacity="0.36"/>
    <path d="M353 550 C396 578 443 574 488 552 C531 584 586 586 646 548 C705 586 760 586 804 552 C849 574 896 578 938 548" fill="none" stroke="#6d2e44" stroke-width="7" stroke-linecap="round"/>
  </g>

  <g transform="translate(640 915)">
    <path d="M-14 -210 C-82 -184 -100 -96 -84 4 C-70 92 -98 174 -158 226 C-74 242 64 244 152 224 C98 156 78 92 88 10 C102 -102 66 -190 -14 -210Z" fill="#2f313a"/>
    <path d="M-35 -176 C-84 -138 -72 -40 -56 28 C-36 110 -50 174 -92 222 C-36 232 58 232 112 216 C76 164 60 106 69 31 C82 -66 39 -160 -35 -176Z" fill="#3b3b48"/>
    <path d="M-36 -152 C-82 -128 -110 -90 -134 -40" fill="none" stroke="#191d26" stroke-width="16" stroke-linecap="round"/>
    <path d="M30 -150 C80 -116 110 -74 132 -22" fill="none" stroke="#191d26" stroke-width="14" stroke-linecap="round"/>

    <ellipse cx="-9" cy="-177" rx="42" ry="52" fill="#f2c0aa"/>
    <path d="M-54 -190 C-48 -246 34 -246 52 -190 C18 -206 -15 -218 -54 -190Z" fill="#252834"/>
    <path d="M-51 -188 C-35 -214 9 -224 48 -194 C44 -146 16 -116 -16 -122 C-42 -128 -56 -154 -51 -188Z" fill="#f0b99f"/>
    <path d="M-44 -204 C-58 -174 -55 -132 -34 -104 C-86 -126 -96 -202 -44 -234 C-4 -258 48 -236 58 -188 C24 -212 -9 -222 -44 -204Z" fill="#252834"/>

    <path d="M-37 -102 C-64 -58 -86 42 -108 192 C-44 238 64 238 126 194 C94 40 73 -58 36 -104 C16 -82 -12 -80 -37 -102Z" fill="url(#dress)"/>
    <path d="M-103 174 C-136 258 -184 334 -235 418 C-154 448 -23 454 80 426 C152 406 214 402 278 430 C218 334 164 254 125 174 C59 220 -36 222 -103 174Z" fill="#b16c81"/>
    <path d="M-94 184 C-46 214 62 216 114 184" fill="none" stroke="#f4cec4" stroke-width="6" opacity="0.48"/>
    <path d="M-47 -77 C-14 -38 16 -38 50 -78" fill="none" stroke="#f6dfd5" stroke-width="6" opacity="0.62"/>

    <path d="M-67 -36 C-138 14 -184 62 -224 124" fill="none" stroke="#e8af9d" stroke-width="20" stroke-linecap="round"/>
    <path d="M48 -38 C100 -2 124 42 128 104" fill="none" stroke="#e8af9d" stroke-width="18" stroke-linecap="round"/>
    <path d="M128 104 C137 123 156 127 174 116" fill="none" stroke="#e8af9d" stroke-width="17" stroke-linecap="round"/>
    <path d="M-224 124 C-242 148 -238 166 -216 178" fill="none" stroke="#e8af9d" stroke-width="17" stroke-linecap="round"/>

    <path d="M-62 -100 C-24 -74 17 -75 52 -104" fill="none" stroke="#d98f87" stroke-width="5" opacity="0.4"/>
    <path d="M-34 -148 C-22 -138 -6 -137 8 -148" fill="none" stroke="#a35855" stroke-width="4" opacity="0.52" stroke-linecap="round"/>
  </g>

  <g opacity="0.76">
    <path d="M658 1086 C678 1112 688 1144 688 1182" fill="none" stroke="#5a403f" stroke-width="8" stroke-linecap="round"/>
    <path d="M688 1182 C690 1206 672 1215 654 1204" fill="none" stroke="#5a403f" stroke-width="8" stroke-linecap="round"/>
  </g>

  <g opacity="0.72">
    <use href="#raindrop" x="84" y="52"/>
    <use href="#raindrop" x="156" y="126"/>
    <use href="#raindrop" x="242" y="54"/>
    <use href="#raindrop" x="334" y="142"/>
    <use href="#raindrop" x="448" y="72"/>
    <use href="#raindrop" x="520" y="160"/>
    <use href="#raindrop" x="634" y="78"/>
    <use href="#raindrop" x="764" y="132"/>
    <use href="#raindrop" x="902" y="54"/>
    <use href="#raindrop" x="1040" y="122"/>
    <use href="#raindrop" x="1184" y="74"/>
    <use href="#raindrop" x="120" y="320"/>
    <use href="#raindrop" x="218" y="256"/>
    <use href="#raindrop" x="314" y="364"/>
    <use href="#raindrop" x="1018" y="318"/>
    <use href="#raindrop" x="1138" y="262"/>
    <use href="#raindrop" x="1224" y="360"/>
    <use href="#raindrop" x="74" y="654"/>
    <use href="#raindrop" x="182" y="598"/>
    <use href="#raindrop" x="302" y="684"/>
    <use href="#raindrop" x="958" y="620"/>
    <use href="#raindrop" x="1088" y="680"/>
    <use href="#raindrop" x="1210" y="604"/>
    <use href="#raindrop" x="70" y="1070"/>
    <use href="#raindrop" x="176" y="1160"/>
    <use href="#raindrop" x="1118" y="1128"/>
    <use href="#raindrop" x="1230" y="1212"/>
  </g>

  <g opacity="0.34">
    <circle cx="196" cy="834" r="16" fill="none" stroke="#e9f5ed" stroke-width="3"/>
    <circle cx="350" cy="930" r="20" fill="none" stroke="#e9f5ed" stroke-width="3"/>
    <circle cx="1030" cy="900" r="18" fill="none" stroke="#e9f5ed" stroke-width="3"/>
    <circle cx="1126" cy="1186" r="22" fill="none" stroke="#e9f5ed" stroke-width="3"/>
    <circle cx="496" cy="1248" r="18" fill="none" stroke="#e9f5ed" stroke-width="3"/>
    <circle cx="774" cy="1358" r="24" fill="none" stroke="#e9f5ed" stroke-width="3"/>
  </g>

  <rect width="1280" height="1600" fill="none" stroke="#f7ead5" stroke-width="24" opacity="0.55"/>
</svg>
